INFO: Created TensorFlow Lite XNNPACK delegate for CPU.
W0000 00:00:1778432997.071472   19844 inference_feedback_manager.cc:121] Feedback manager requires a model with a single signature inference. Disabling support for feedback tensors.
ffmpeg version 8.1.1-full_build-www.gyan.dev Copyright (c) 2000-2026 the FFmpeg developers
  built with gcc 15.2.0 (Rev13, Built by MSYS2 project)
  configuration: --enable-gpl --enable-version3 --enable-static --disable-w32threads --disable-autodetect --enable-cairo --enable-fontconfig --enable-iconv --enable-gnutls --enable-lcms2 --enable-libxml2 --enable-gmp --enable-bzlib --enable-lzma --enable-libsnappy --enable-zlib --enable-librist --enable-libsrt --enable-libssh --enable-libzmq --enable-avisynth --enable-libbluray --enable-libcaca --enable-libdvdnav --enable-libdvdread --enable-sdl2 --enable-libaribb24 --enable-libaribcaption --enable-libdav1d --enable-libdavs2 --enable-libopenjpeg --enable-libquirc --enable-libuavs3d --enable-libxevd --enable-libzvbi --enable-liboapv --enable-libqrencode --enable-librav1e --enable-libsvtav1 --enable-libvvenc --enable-libwebp --enable-libx264 --enable-libx265 --enable-libxavs2 --enable-libxeve --enable-libxvid --enable-libaom --enable-libjxl --enable-libsvtjpegxs --enable-libvpx --enable-mediafoundation --enable-libass --enable-frei0r --enable-libfreetype --enable-libfribidi --enable-libharfbuzz --enable-liblensfun --enable-libvidstab --enable-libvmaf --enable-libzimg --enable-amf --enable-cuda-llvm --enable-cuvid --enable-dxva2 --enable-d3d11va --enable-d3d12va --enable-ffnvcodec --enable-libvpl --enable-nvdec --enable-nvenc --enable-vaapi --enable-libshaderc --enable-vulkan --enable-libplacebo --enable-opencl --enable-libcdio --enable-openal --enable-libgme --enable-libmodplug --enable-libopenmpt --enable-libopencore-amrwb --enable-libmp3lame --enable-libshine --enable-libtheora --enable-libtwolame --enable-libvo-amrwbenc --enable-libcodec2 --enable-libilbc --enable-libgsm --enable-liblc3 --enable-libopencore-amrnb --enable-libopus --enable-libspeex --enable-libvorbis --enable-ladspa --enable-libbs2b --enable-libflite --enable-libmysofa --enable-librubberband --enable-libsoxr --enable-chromaprint --enable-whisper
  libavutil      60. 26.101 / 60. 26.101
  libavcodec     62. 28.101 / 62. 28.101
  libavformat    62. 12.101 / 62. 12.101
  libavdevice    62.  3.101 / 62.  3.101
  libavfilter    11. 14.101 / 11. 14.101
  libswscale      9.  5.101 /  9.  5.101
  libswresample   6.  3.101 /  6.  3.101
Input #0, avi, from 'C:\Users\Macie\AppData\Local\Temp\face_track_tno7p7s7\segment_1_17-47_41_18-35_79_silent.avi':
  Metadata:
    software        : Lavf62.12.101
  Duration: 00:00:48.38, start: 0.000000, bitrate: 13402 kb/s
  Stream #0:0: Video: h264 (High) (H264 / 0x34363248), yuvj420p(pc, bt470bg/unknown/unknown, progressive), 1080x1920 [SAR 1:1 DAR 9:16], 13394 kb/s, 59.94 fps, 59.94 tbr, 59.94 tbn
Input #1, mov,mp4,m4a,3gp,3g2,mj2, from 'C:\Users\Macie\AppData\Local\Temp\face_track_tno7p7s7\segment_1_17-47_41_18-35_79_audio.m4a':
  Metadata:
    major_brand     : M4A 
    minor_version   : 512
    compatible_brands: M4A isomiso2
    encoder         : Lavf62.12.101
  Duration: 00:00:48.38, start: 0.000000, bitrate: 202 kb/s
  Stream #1:0[0x1](eng): Audio: aac (LC) (mp4a / 0x6134706D), 48000 Hz, stereo, fltp, 201 kb/s (default)
    Metadata:
      handler_name    : SoundHandler
Stream mapping:
  Stream #0:0 -> #0:0 (h264 (native) -> h264 (libx264))
  Stream #1:0 -> #0:1 (aac (native) -> aac (native))
Press [q] to stop, [?] for help
[swscaler @ 000002295f64b180] deprecated pixel format used, make sure you did set range correctly
[libx264 @ 000002295b77d8c0] using SAR=1/1
[libx264 @ 000002295b77d8c0] using cpu capabilities: MMX2 SSE2Fast SSSE3 SSE4.2 AVX FMA3 BMI2 AVX2 AVX512
[libx264 @ 000002295b77d8c0] profile High, level 4.2, 4:2:0, 8-bit
[libx264 @ 000002295b77d8c0] 264 - core 165 r3223 0480cb0 - H.264/MPEG-4 AVC codec - Copyleft 2003-2025 - http://www.videolan.org/x264.html - options: cabac=1 ref=1 deblock=1:0:0 analyse=0x3:0x3 me=dia subme=1 psy=1 psy_rd=1.00:0.00 mixed_ref=0 me_range=16 chroma_me=1 trellis=0 8x8dct=1 cqm=0 deadzone=21,11 fast_pskip=1 chroma_qp_offset=0 threads=24 lookahead_threads=4 sliced_threads=0 nr=0 decimate=1 interlaced=0 bluray_compat=0 constrained_intra=0 bframes=3 b_pyramid=2 b_adapt=1 b_bias=0 direct=1 weightb=1 open_gop=0 weightp=1 keyint=250 keyint_min=25 scenecut=40 intra_refresh=0 rc=crf mbtree=0 crf=23.0 qcomp=0.60 qpmin=0 qpmax=69 qpstep=4 ip_ratio=1.40 pb_ratio=1.30 aq=1:1.00
Output #0, mp4, to 'D:\PythonProjects\viral-cutter-ai\benchmarks\runs\20260510_164907\emeritos_gameplay\compare_generic\cuts_raw\segment_1_17-47_41_18-35_79.mp4':
  Metadata:
    software        : Lavf62.12.101
    encoder         : Lavf62.12.101
  Stream #0:0: Video: h264 (avc1 / 0x31637661), yuv420p(pc, bt470bg/unknown/unknown, progressive), 1080x1920 [SAR 1:1 DAR 9:16], q=2-31, 59.94 fps, 60k tbn
    Metadata:
      encoder         : Lavc62.28.101 libx264
    Side data:
      CPB properties: bitrate max/min/avg: 0/0/0 buffer size: 0 vbv_delay: N/A
  Stream #0:1(eng): Audio: aac (LC) (mp4a / 0x6134706D), 48000 Hz, stereo, fltp, 192 kb/s (default)
    Metadata:
      encoder         : Lavc62.28.101 aac
      handler_name    : SoundHandler
frame=  222 fps=0.0 q=27.0 size=    3584KiB time=00:00:03.70 bitrate=7927.3kbits/s speed=7.14x elapsed=0:00:00.51    frame=  543 fps=523 q=27.0 size=    7680KiB time=00:00:09.05 bitrate=6945.0kbits/s speed=8.73x elapsed=0:00:01.03    frame=  674 fps=435 q=27.0 size=    9472KiB time=00:00:11.24 bitrate=6900.7kbits/s speed=7.26x elapsed=0:00:01.54    frame=  946 fps=460 q=26.0 size=   14080KiB time=00:00:15.78 bitrate=7308.4kbits/s speed=7.68x elapsed=0:00:02.05    frame= 1265 fps=492 q=25.0 size=   17664KiB time=00:00:21.10 bitrate=6856.6kbits/s speed=8.21x elapsed=0:00:02.57    frame= 1575 fps=508 q=27.0 size=   21248KiB time=00:00:26.27 bitrate=6624.4kbits/s speed=8.48x elapsed=0:00:03.09    frame= 1863 fps=516 q=27.0 size=   25600KiB time=00:00:31.08 bitrate=6747.4kbits/s speed= 8.6x elapsed=0:00:03.61    frame= 2169 fps=525 q=26.0 size=   29440KiB time=00:00:36.18 bitrate=6664.8kbits/s speed=8.76x elapsed=0:00:04.13    frame= 2525 fps=543 q=25.0 size=   34816KiB time=00:00:42.68 bitrate=6681.3kbits/s speed=9.19x elapsed=0:00:04.64    frame= 2861 fps=554 q=24.0 size=   40704KiB time=00:00:48.29 bitrate=6903.9kbits/s speed=9.36x elapsed=0:00:05.16    [mp4 @ 000002295dd98b00] Starting second pass: moving the moov atom to the beginning of the file
[out#0/mp4 @ 000002295d8c0680] video:40233KiB audio:1183KiB subtitle:0KiB other streams:0KiB global headers:0KiB muxing overhead: 0.182465%
frame= 2898 fps=557 q=-1.0 Lsize=   41491KiB time=00:00:48.34 bitrate=7030.2kbits/s speed= 9.3x elapsed=0:00:05.20    
[libx264 @ 000002295b77d8c0] frame I:15    Avg QP:19.25  size: 69450
[libx264 @ 000002295b77d8c0] frame P:994   Avg QP:21.09  size: 25098
[libx264 @ 000002295b77d8c0] frame B:1889  Avg QP:22.87  size:  8051
[libx264 @ 000002295b77d8c0] consecutive B-frames:  6.1% 19.3%  4.6% 70.0%
[libx264 @ 000002295b77d8c0] mb I  I16..4: 13.9% 62.1% 24.0%
[libx264 @ 000002295b77d8c0] mb P  I16..4:  9.0% 27.5%  2.6%  P16..4: 31.7%  0.0%  0.0%  0.0%  0.0%    skip:29.2%
[libx264 @ 000002295b77d8c0] mb B  I16..4:  1.8%  3.7%  0.2%  B16..8: 23.5%  0.0%  0.0%  direct: 5.5%  skip:65.4%  L0:43.6% L1:49.4% BI: 7.0%
[libx264 @ 000002295b77d8c0] 8x8 transform intra:68.9% inter:49.9%
[libx264 @ 000002295b77d8c0] coded y,uvDC,uvAC intra: 36.1% 30.5% 6.2% inter: 3.9% 8.8% 0.0%
[libx264 @ 000002295b77d8c0] i16 v,h,dc,p: 37% 36% 10% 16%
[libx264 @ 000002295b77d8c0] i8 v,h,dc,ddl,ddr,vr,hd,vl,hu: 15% 29% 16%  6%  6%  5% 10%  4%  9%
[libx264 @ 000002295b77d8c0] i4 v,h,dc,ddl,ddr,vr,hd,vl,hu: 20% 34% 11%  6%  6%  5%  7%  4%  8%
[libx264 @ 000002295b77d8c0] i8c dc,h,v,p: 52% 24% 16%  8%
[libx264 @ 000002295b77d8c0] Weighted P-Frames: Y:0.6% UV:0.3%
[libx264 @ 000002295b77d8c0] kb/s:6816.90
[aac @ 000002295db91b40] Qavg: 612.975
W0000 00:00:1778433059.923263   17744 inference_feedback_manager.cc:121] Feedback manager requires a model with a single signature inference. Disabling support for feedback tensors.
ffmpeg version 8.1.1-full_build-www.gyan.dev Copyright (c) 2000-2026 the FFmpeg developers
  built with gcc 15.2.0 (Rev13, Built by MSYS2 project)
  configuration: --enable-gpl --enable-version3 --enable-static --disable-w32threads --disable-autodetect --enable-cairo --enable-fontconfig --enable-iconv --enable-gnutls --enable-lcms2 --enable-libxml2 --enable-gmp --enable-bzlib --enable-lzma --enable-libsnappy --enable-zlib --enable-librist --enable-libsrt --enable-libssh --enable-libzmq --enable-avisynth --enable-libbluray --enable-libcaca --enable-libdvdnav --enable-libdvdread --enable-sdl2 --enable-libaribb24 --enable-libaribcaption --enable-libdav1d --enable-libdavs2 --enable-libopenjpeg --enable-libquirc --enable-libuavs3d --enable-libxevd --enable-libzvbi --enable-liboapv --enable-libqrencode --enable-librav1e --enable-libsvtav1 --enable-libvvenc --enable-libwebp --enable-libx264 --enable-libx265 --enable-libxavs2 --enable-libxeve --enable-libxvid --enable-libaom --enable-libjxl --enable-libsvtjpegxs --enable-libvpx --enable-mediafoundation --enable-libass --enable-frei0r --enable-libfreetype --enable-libfribidi --enable-libharfbuzz --enable-liblensfun --enable-libvidstab --enable-libvmaf --enable-libzimg --enable-amf --enable-cuda-llvm --enable-cuvid --enable-dxva2 --enable-d3d11va --enable-d3d12va --enable-ffnvcodec --enable-libvpl --enable-nvdec --enable-nvenc --enable-vaapi --enable-libshaderc --enable-vulkan --enable-libplacebo --enable-opencl --enable-libcdio --enable-openal --enable-libgme --enable-libmodplug --enable-libopenmpt --enable-libopencore-amrwb --enable-libmp3lame --enable-libshine --enable-libtheora --enable-libtwolame --enable-libvo-amrwbenc --enable-libcodec2 --enable-libilbc --enable-libgsm --enable-liblc3 --enable-libopencore-amrnb --enable-libopus --enable-libspeex --enable-libvorbis --enable-ladspa --enable-libbs2b --enable-libflite --enable-libmysofa --enable-librubberband --enable-libsoxr --enable-chromaprint --enable-whisper
  libavutil      60. 26.101 / 60. 26.101
  libavcodec     62. 28.101 / 62. 28.101
  libavformat    62. 12.101 / 62. 12.101
  libavdevice    62.  3.101 / 62.  3.101
  libavfilter    11. 14.101 / 11. 14.101
  libswscale      9.  5.101 /  9.  5.101
  libswresample   6.  3.101 /  6.  3.101
Input #0, avi, from 'C:\Users\Macie\AppData\Local\Temp\face_track_xgr4dffc\segment_2_16-38_20_17-19_73_silent.avi':
  Metadata:
    software        : Lavf62.12.101
  Duration: 00:00:41.52, start: 0.000000, bitrate: 9078 kb/s
  Stream #0:0: Video: h264 (High) (H264 / 0x34363248), yuvj420p(pc, bt470bg/unknown/unknown, progressive), 1080x1920 [SAR 1:1 DAR 9:16], 9069 kb/s, 59.94 fps, 59.94 tbr, 59.94 tbn
Input #1, mov,mp4,m4a,3gp,3g2,mj2, from 'C:\Users\Macie\AppData\Local\Temp\face_track_xgr4dffc\segment_2_16-38_20_17-19_73_audio.m4a':
  Metadata:
    major_brand     : M4A 
    minor_version   : 512
    compatible_brands: M4A isomiso2
    encoder         : Lavf62.12.101
  Duration: 00:00:41.53, start: 0.000000, bitrate: 197 kb/s
  Stream #1:0[0x1](eng): Audio: aac (LC) (mp4a / 0x6134706D), 48000 Hz, stereo, fltp, 195 kb/s (default)
    Metadata:
      handler_name    : SoundHandler
Stream mapping:
  Stream #0:0 -> #0:0 (h264 (native) -> h264 (libx264))
  Stream #1:0 -> #0:1 (aac (native) -> aac (native))
Press [q] to stop, [?] for help
[swscaler @ 000001cae09f3f80] deprecated pixel format used, make sure you did set range correctly
[libx264 @ 000001cadcc0a6c0] using SAR=1/1
[libx264 @ 000001cadcc0a6c0] using cpu capabilities: MMX2 SSE2Fast SSSE3 SSE4.2 AVX FMA3 BMI2 AVX2 AVX512
[libx264 @ 000001cadcc0a6c0] profile High, level 4.2, 4:2:0, 8-bit
[libx264 @ 000001cadcc0a6c0] 264 - core 165 r3223 0480cb0 - H.264/MPEG-4 AVC codec - Copyleft 2003-2025 - http://www.videolan.org/x264.html - options: cabac=1 ref=1 deblock=1:0:0 analyse=0x3:0x3 me=dia subme=1 psy=1 psy_rd=1.00:0.00 mixed_ref=0 me_range=16 chroma_me=1 trellis=0 8x8dct=1 cqm=0 deadzone=21,11 fast_pskip=1 chroma_qp_offset=0 threads=24 lookahead_threads=4 sliced_threads=0 nr=0 decimate=1 interlaced=0 bluray_compat=0 constrained_intra=0 bframes=3 b_pyramid=2 b_adapt=1 b_bias=0 direct=1 weightb=1 open_gop=0 weightp=1 keyint=250 keyint_min=25 scenecut=40 intra_refresh=0 rc=crf mbtree=0 crf=23.0 qcomp=0.60 qpmin=0 qpmax=69 qpstep=4 ip_ratio=1.40 pb_ratio=1.30 aq=1:1.00
Output #0, mp4, to 'D:\PythonProjects\viral-cutter-ai\benchmarks\runs\20260510_164907\emeritos_gameplay\compare_generic\cuts_raw\segment_2_16-38_20_17-19_73.mp4':
  Metadata:
    software        : Lavf62.12.101
    encoder         : Lavf62.12.101
  Stream #0:0: Video: h264 (avc1 / 0x31637661), yuv420p(pc, bt470bg/unknown/unknown, progressive), 1080x1920 [SAR 1:1 DAR 9:16], q=2-31, 59.94 fps, 60k tbn
    Metadata:
      encoder         : Lavc62.28.101 libx264
    Side data:
      CPB properties: bitrate max/min/avg: 0/0/0 buffer size: 0 vbv_delay: N/A
  Stream #0:1(eng): Audio: aac (LC) (mp4a / 0x6134706D), 48000 Hz, stereo, fltp, 192 kb/s (default)
    Metadata:
      encoder         : Lavc62.28.101 aac
      handler_name    : SoundHandler
frame=  358 fps=0.0 q=21.0 size=    2304KiB time=00:00:05.97 bitrate=3160.2kbits/s speed=11.5x elapsed=0:00:00.51    frame=  573 fps=560 q=21.0 size=    3328KiB time=00:00:09.55 bitrate=2852.0kbits/s speed=9.34x elapsed=0:00:01.02    frame=  934 fps=606 q=27.0 size=    6656KiB time=00:00:15.58 bitrate=3499.3kbits/s speed=10.1x elapsed=0:00:01.54    frame= 1243 fps=604 q=24.0 size=   11264KiB time=00:00:20.73 bitrate=4449.7kbits/s speed=10.1x elapsed=0:00:02.05    frame= 1512 fps=588 q=25.0 size=   14336KiB time=00:00:25.22 bitrate=4655.7kbits/s speed=9.82x elapsed=0:00:02.56    frame= 1785 fps=578 q=28.0 size=   19200KiB time=00:00:29.77 bitrate=5281.7kbits/s speed=9.65x elapsed=0:00:03.08    frame= 2208 fps=611 q=22.0 size=   23808KiB time=00:00:37.39 bitrate=5215.2kbits/s speed=10.3x elapsed=0:00:03.61    [mp4 @ 000001cadf12a6c0] Starting second pass: moving the moov atom to the beginning of the file
[out#0/mp4 @ 000001cadcc06840] video:24270KiB audio:992KiB subtitle:0KiB other streams:0KiB global headers:0KiB muxing overhead: 0.254943%
frame= 2487 fps=646 q=-1.0 Lsize=   25327KiB time=00:00:41.49 bitrate=5000.5kbits/s speed=10.8x elapsed=0:00:03.85    
[libx264 @ 000001cadcc0a6c0] frame I:13    Avg QP:15.81  size: 93748
[libx264 @ 000001cadcc0a6c0] frame P:885   Avg QP:17.13  size: 17682
[libx264 @ 000001cadcc0a6c0] frame B:1589  Avg QP:18.91  size:  5025
[libx264 @ 000001cadcc0a6c0] consecutive B-frames:  9.7% 13.3%  6.4% 70.6%
[libx264 @ 000001cadcc0a6c0] mb I  I16..4: 26.6% 45.1% 28.4%
[libx264 @ 000001cadcc0a6c0] mb P  I16..4: 15.9% 18.2%  2.1%  P16..4: 18.5%  0.0%  0.0%  0.0%  0.0%    skip:45.2%
[libx264 @ 000001cadcc0a6c0] mb B  I16..4:  2.1%  3.0%  0.2%  B16..8: 10.8%  0.0%  0.0%  direct: 4.8%  skip:79.2%  L0:43.1% L1:49.7% BI: 7.2%
[libx264 @ 000001cadcc0a6c0] 8x8 transform intra:51.4% inter:50.1%
[libx264 @ 000001cadcc0a6c0] coded y,uvDC,uvAC intra: 26.5% 28.5% 8.5% inter: 2.4% 7.7% 0.1%
[libx264 @ 000001cadcc0a6c0] i16 v,h,dc,p: 57% 30%  4%  9%
[libx264 @ 000001cadcc0a6c0] i8 v,h,dc,ddl,ddr,vr,hd,vl,hu: 16% 27% 17%  6%  6%  6%  9%  4%  9%
[libx264 @ 000001cadcc0a6c0] i4 v,h,dc,ddl,ddr,vr,hd,vl,hu: 23% 31% 11%  7%  6%  5%  6%  4%  7%
[libx264 @ 000001cadcc0a6c0] i8c dc,h,v,p: 58% 21% 14%  7%
[libx264 @ 000001cadcc0a6c0] Weighted P-Frames: Y:12.3% UV:1.9%
[libx264 @ 000001cadcc0a6c0] kb/s:4791.77
[aac @ 000001cadf04cb80] Qavg: 609.241
W0000 00:00:1778433106.931462    6300 inference_feedback_manager.cc:121] Feedback manager requires a model with a single signature inference. Disabling support for feedback tensors.
ffmpeg version 8.1.1-full_build-www.gyan.dev Copyright (c) 2000-2026 the FFmpeg developers
  built with gcc 15.2.0 (Rev13, Built by MSYS2 project)
  configuration: --enable-gpl --enable-version3 --enable-static --disable-w32threads --disable-autodetect --enable-cairo --enable-fontconfig --enable-iconv --enable-gnutls --enable-lcms2 --enable-libxml2 --enable-gmp --enable-bzlib --enable-lzma --enable-libsnappy --enable-zlib --enable-librist --enable-libsrt --enable-libssh --enable-libzmq --enable-avisynth --enable-libbluray --enable-libcaca --enable-libdvdnav --enable-libdvdread --enable-sdl2 --enable-libaribb24 --enable-libaribcaption --enable-libdav1d --enable-libdavs2 --enable-libopenjpeg --enable-libquirc --enable-libuavs3d --enable-libxevd --enable-libzvbi --enable-liboapv --enable-libqrencode --enable-librav1e --enable-libsvtav1 --enable-libvvenc --enable-libwebp --enable-libx264 --enable-libx265 --enable-libxavs2 --enable-libxeve --enable-libxvid --enable-libaom --enable-libjxl --enable-libsvtjpegxs --enable-libvpx --enable-mediafoundation --enable-libass --enable-frei0r --enable-libfreetype --enable-libfribidi --enable-libharfbuzz --enable-liblensfun --enable-libvidstab --enable-libvmaf --enable-libzimg --enable-amf --enable-cuda-llvm --enable-cuvid --enable-dxva2 --enable-d3d11va --enable-d3d12va --enable-ffnvcodec --enable-libvpl --enable-nvdec --enable-nvenc --enable-vaapi --enable-libshaderc --enable-vulkan --enable-libplacebo --enable-opencl --enable-libcdio --enable-openal --enable-libgme --enable-libmodplug --enable-libopenmpt --enable-libopencore-amrwb --enable-libmp3lame --enable-libshine --enable-libtheora --enable-libtwolame --enable-libvo-amrwbenc --enable-libcodec2 --enable-libilbc --enable-libgsm --enable-liblc3 --enable-libopencore-amrnb --enable-libopus --enable-libspeex --enable-libvorbis --enable-ladspa --enable-libbs2b --enable-libflite --enable-libmysofa --enable-librubberband --enable-libsoxr --enable-chromaprint --enable-whisper
  libavutil      60. 26.101 / 60. 26.101
  libavcodec     62. 28.101 / 62. 28.101
  libavformat    62. 12.101 / 62. 12.101
  libavdevice    62.  3.101 / 62.  3.101
  libavfilter    11. 14.101 / 11. 14.101
  libswscale      9.  5.101 /  9.  5.101
  libswresample   6.  3.101 /  6.  3.101
Input #0, avi, from 'C:\Users\Macie\AppData\Local\Temp\face_track_6xwqh2u9\segment_3_05-37_91_06-14_94_silent.avi':
  Metadata:
    software        : Lavf62.12.101
  Duration: 00:00:37.04, start: 0.000000, bitrate: 13745 kb/s
  Stream #0:0: Video: h264 (High) (H264 / 0x34363248), yuvj420p(pc, bt470bg/unknown/unknown, progressive), 1080x1920 [SAR 1:1 DAR 9:16], 13738 kb/s, 59.94 fps, 59.94 tbr, 59.94 tbn
Input #1, mov,mp4,m4a,3gp,3g2,mj2, from 'C:\Users\Macie\AppData\Local\Temp\face_track_6xwqh2u9\segment_3_05-37_91_06-14_94_audio.m4a':
  Metadata:
    major_brand     : M4A 
    minor_version   : 512
    compatible_brands: M4A isomiso2
    encoder         : Lavf62.12.101
  Duration: 00:00:37.03, start: 0.000000, bitrate: 199 kb/s
  Stream #1:0[0x1](eng): Audio: aac (LC) (mp4a / 0x6134706D), 48000 Hz, stereo, fltp, 197 kb/s (default)
    Metadata:
      handler_name    : SoundHandler
Stream mapping:
  Stream #0:0 -> #0:0 (h264 (native) -> h264 (libx264))
  Stream #1:0 -> #0:1 (aac (native) -> aac (native))
Press [q] to stop, [?] for help
[swscaler @ 000001d9eb949ac0] deprecated pixel format used, make sure you did set range correctly
[libx264 @ 000001d9e7c038c0] using SAR=1/1
[libx264 @ 000001d9e7c038c0] using cpu capabilities: MMX2 SSE2Fast SSSE3 SSE4.2 AVX FMA3 BMI2 AVX2 AVX512
[libx264 @ 000001d9e7c038c0] profile High, level 4.2, 4:2:0, 8-bit
[libx264 @ 000001d9e7c038c0] 264 - core 165 r3223 0480cb0 - H.264/MPEG-4 AVC codec - Copyleft 2003-2025 - http://www.videolan.org/x264.html - options: cabac=1 ref=1 deblock=1:0:0 analyse=0x3:0x3 me=dia subme=1 psy=1 psy_rd=1.00:0.00 mixed_ref=0 me_range=16 chroma_me=1 trellis=0 8x8dct=1 cqm=0 deadzone=21,11 fast_pskip=1 chroma_qp_offset=0 threads=24 lookahead_threads=4 sliced_threads=0 nr=0 decimate=1 interlaced=0 bluray_compat=0 constrained_intra=0 bframes=3 b_pyramid=2 b_adapt=1 b_bias=0 direct=1 weightb=1 open_gop=0 weightp=1 keyint=250 keyint_min=25 scenecut=40 intra_refresh=0 rc=crf mbtree=0 crf=23.0 qcomp=0.60 qpmin=0 qpmax=69 qpstep=4 ip_ratio=1.40 pb_ratio=1.30 aq=1:1.00
Output #0, mp4, to 'D:\PythonProjects\viral-cutter-ai\benchmarks\runs\20260510_164907\emeritos_gameplay\compare_generic\cuts_raw\segment_3_05-37_91_06-14_94.mp4':
  Metadata:
    software        : Lavf62.12.101
    encoder         : Lavf62.12.101
  Stream #0:0: Video: h264 (avc1 / 0x31637661), yuv420p(pc, bt470bg/unknown/unknown, progressive), 1080x1920 [SAR 1:1 DAR 9:16], q=2-31, 59.94 fps, 60k tbn
    Metadata:
      encoder         : Lavc62.28.101 libx264
    Side data:
      CPB properties: bitrate max/min/avg: 0/0/0 buffer size: 0 vbv_delay: N/A
  Stream #0:1(eng): Audio: aac (LC) (mp4a / 0x6134706D), 48000 Hz, stereo, fltp, 192 kb/s (default)
    Metadata:
      encoder         : Lavc62.28.101 aac
      handler_name    : SoundHandler
frame=  267 fps=0.0 q=26.0 size=    3584KiB time=00:00:04.45 bitrate=6591.3kbits/s speed=8.87x elapsed=0:00:00.50    frame=  573 fps=561 q=28.0 size=    7936KiB time=00:00:09.55 bitrate=6800.7kbits/s speed=9.37x elapsed=0:00:01.02    frame=  698 fps=455 q=26.0 size=    9984KiB time=00:00:11.64 bitrate=7023.6kbits/s speed=7.58x elapsed=0:00:01.53    frame= 1009 fps=493 q=26.0 size=   14080KiB time=00:00:16.83 bitrate=6852.0kbits/s speed=8.22x elapsed=0:00:02.04    frame= 1292 fps=504 q=27.0 size=   17664KiB time=00:00:21.55 bitrate=6713.3kbits/s speed= 8.4x elapsed=0:00:02.56    frame= 1567 fps=507 q=27.0 size=   22272KiB time=00:00:26.14 bitrate=6979.1kbits/s speed=8.46x elapsed=0:00:03.09    frame= 1907 fps=530 q=28.0 size=   27392KiB time=00:00:32.34 bitrate=6938.4kbits/s speed=   9x elapsed=0:00:03.59    [mp4 @ 000001d9e99f0480] Starting second pass: moving the moov atom to the beginning of the file
[out#0/mp4 @ 000001d9e7bfcac0] video:31888KiB audio:896KiB subtitle:0KiB other streams:0KiB global headers:0KiB muxing overhead: 0.175375%
frame= 2217 fps=543 q=-1.0 Lsize=   32842KiB time=00:00:36.98 bitrate=7273.9kbits/s speed=9.06x elapsed=0:00:04.08    
[libx264 @ 000001d9e7c038c0] frame I:14    Avg QP:19.85  size: 78883
[libx264 @ 000001d9e7c038c0] frame P:845   Avg QP:21.06  size: 25244
[libx264 @ 000001d9e7c038c0] frame B:1358  Avg QP:22.54  size:  7523
[libx264 @ 000001d9e7c038c0] consecutive B-frames: 10.6% 21.6%  4.9% 63.0%
[libx264 @ 000001d9e7c038c0] mb I  I16..4: 13.3% 54.5% 32.2%
[libx264 @ 000001d9e7c038c0] mb P  I16..4:  9.6% 28.5%  2.9%  P16..4: 32.1%  0.0%  0.0%  0.0%  0.0%    skip:26.9%
[libx264 @ 000001d9e7c038c0] mb B  I16..4:  2.1%  3.9%  0.2%  B16..8: 22.2%  0.0%  0.0%  direct: 4.8%  skip:66.8%  L0:42.6% L1:50.3% BI: 7.1%
[libx264 @ 000001d9e7c038c0] 8x8 transform intra:67.9% inter:54.1%
[libx264 @ 000001d9e7c038c0] coded y,uvDC,uvAC intra: 36.5% 26.7% 5.1% inter: 4.0% 8.0% 0.1%
[libx264 @ 000001d9e7c038c0] i16 v,h,dc,p: 38% 35% 10% 17%
[libx264 @ 000001d9e7c038c0] i8 v,h,dc,ddl,ddr,vr,hd,vl,hu: 15% 26% 16%  6%  7%  6%  9%  5% 10%
[libx264 @ 000001d9e7c038c0] i4 v,h,dc,ddl,ddr,vr,hd,vl,hu: 20% 31% 11%  7%  6%  5%  7%  4%  7%
[libx264 @ 000001d9e7c038c0] i8c dc,h,v,p: 55% 22% 16%  7%
[libx264 @ 000001d9e7c038c0] Weighted P-Frames: Y:0.5% UV:0.1%
[libx264 @ 000001d9e7c038c0] kb/s:7062.50
[aac @ 000001d9ea0b2480] Qavg: 699.791
W0000 00:00:1778433156.167468   33636 inference_feedback_manager.cc:121] Feedback manager requires a model with a single signature inference. Disabling support for feedback tensors.
ffmpeg version 8.1.1-full_build-www.gyan.dev Copyright (c) 2000-2026 the FFmpeg developers
  built with gcc 15.2.0 (Rev13, Built by MSYS2 project)
  configuration: --enable-gpl --enable-version3 --enable-static --disable-w32threads --disable-autodetect --enable-cairo --enable-fontconfig --enable-iconv --enable-gnutls --enable-lcms2 --enable-libxml2 --enable-gmp --enable-bzlib --enable-lzma --enable-libsnappy --enable-zlib --enable-librist --enable-libsrt --enable-libssh --enable-libzmq --enable-avisynth --enable-libbluray --enable-libcaca --enable-libdvdnav --enable-libdvdread --enable-sdl2 --enable-libaribb24 --enable-libaribcaption --enable-libdav1d --enable-libdavs2 --enable-libopenjpeg --enable-libquirc --enable-libuavs3d --enable-libxevd --enable-libzvbi --enable-liboapv --enable-libqrencode --enable-librav1e --enable-libsvtav1 --enable-libvvenc --enable-libwebp --enable-libx264 --enable-libx265 --enable-libxavs2 --enable-libxeve --enable-libxvid --enable-libaom --enable-libjxl --enable-libsvtjpegxs --enable-libvpx --enable-mediafoundation --enable-libass --enable-frei0r --enable-libfreetype --enable-libfribidi --enable-libharfbuzz --enable-liblensfun --enable-libvidstab --enable-libvmaf --enable-libzimg --enable-amf --enable-cuda-llvm --enable-cuvid --enable-dxva2 --enable-d3d11va --enable-d3d12va --enable-ffnvcodec --enable-libvpl --enable-nvdec --enable-nvenc --enable-vaapi --enable-libshaderc --enable-vulkan --enable-libplacebo --enable-opencl --enable-libcdio --enable-openal --enable-libgme --enable-libmodplug --enable-libopenmpt --enable-libopencore-amrwb --enable-libmp3lame --enable-libshine --enable-libtheora --enable-libtwolame --enable-libvo-amrwbenc --enable-libcodec2 --enable-libilbc --enable-libgsm --enable-liblc3 --enable-libopencore-amrnb --enable-libopus --enable-libspeex --enable-libvorbis --enable-ladspa --enable-libbs2b --enable-libflite --enable-libmysofa --enable-librubberband --enable-libsoxr --enable-chromaprint --enable-whisper
  libavutil      60. 26.101 / 60. 26.101
  libavcodec     62. 28.101 / 62. 28.101
  libavformat    62. 12.101 / 62. 12.101
  libavdevice    62.  3.101 / 62.  3.101
  libavfilter    11. 14.101 / 11. 14.101
  libswscale      9.  5.101 /  9.  5.101
  libswresample   6.  3.101 /  6.  3.101
Input #0, avi, from 'C:\Users\Macie\AppData\Local\Temp\face_track_gtev3cyj\segment_4_04-14_05_04-59_95_silent.avi':
  Metadata:
    software        : Lavf62.12.101
  Duration: 00:00:45.90, start: 0.000000, bitrate: 13298 kb/s
  Stream #0:0: Video: h264 (High) (H264 / 0x34363248), yuvj420p(pc, bt470bg/unknown/unknown, progressive), 1080x1920 [SAR 1:1 DAR 9:16], 13290 kb/s, 59.94 fps, 59.94 tbr, 59.94 tbn
Input #1, mov,mp4,m4a,3gp,3g2,mj2, from 'C:\Users\Macie\AppData\Local\Temp\face_track_gtev3cyj\segment_4_04-14_05_04-59_95_audio.m4a':
  Metadata:
    major_brand     : M4A 
    minor_version   : 512
    compatible_brands: M4A isomiso2
    encoder         : Lavf62.12.101
  Duration: 00:00:45.90, start: 0.000000, bitrate: 199 kb/s
  Stream #1:0[0x1](eng): Audio: aac (LC) (mp4a / 0x6134706D), 48000 Hz, stereo, fltp, 197 kb/s (default)
    Metadata:
      handler_name    : SoundHandler
Stream mapping:
  Stream #0:0 -> #0:0 (h264 (native) -> h264 (libx264))
  Stream #1:0 -> #0:1 (aac (native) -> aac (native))
Press [q] to stop, [?] for help
[swscaler @ 00000297f93a82c0] deprecated pixel format used, make sure you did set range correctly
[libx264 @ 00000297f7a3d740] using SAR=1/1
[libx264 @ 00000297f7a3d740] using cpu capabilities: MMX2 SSE2Fast SSSE3 SSE4.2 AVX FMA3 BMI2 AVX2 AVX512
[libx264 @ 00000297f7a3d740] profile High, level 4.2, 4:2:0, 8-bit
[libx264 @ 00000297f7a3d740] 264 - core 165 r3223 0480cb0 - H.264/MPEG-4 AVC codec - Copyleft 2003-2025 - http://www.videolan.org/x264.html - options: cabac=1 ref=1 deblock=1:0:0 analyse=0x3:0x3 me=dia subme=1 psy=1 psy_rd=1.00:0.00 mixed_ref=0 me_range=16 chroma_me=1 trellis=0 8x8dct=1 cqm=0 deadzone=21,11 fast_pskip=1 chroma_qp_offset=0 threads=24 lookahead_threads=4 sliced_threads=0 nr=0 decimate=1 interlaced=0 bluray_compat=0 constrained_intra=0 bframes=3 b_pyramid=2 b_adapt=1 b_bias=0 direct=1 weightb=1 open_gop=0 weightp=1 keyint=250 keyint_min=25 scenecut=40 intra_refresh=0 rc=crf mbtree=0 crf=23.0 qcomp=0.60 qpmin=0 qpmax=69 qpstep=4 ip_ratio=1.40 pb_ratio=1.30 aq=1:1.00
Output #0, mp4, to 'D:\PythonProjects\viral-cutter-ai\benchmarks\runs\20260510_164907\emeritos_gameplay\compare_generic\cuts_raw\segment_4_04-14_05_04-59_95.mp4':
  Metadata:
    software        : Lavf62.12.101
    encoder         : Lavf62.12.101
  Stream #0:0: Video: h264 (avc1 / 0x31637661), yuv420p(pc, bt470bg/unknown/unknown, progressive), 1080x1920 [SAR 1:1 DAR 9:16], q=2-31, 59.94 fps, 60k tbn
    Metadata:
      encoder         : Lavc62.28.101 libx264
    Side data:
      CPB properties: bitrate max/min/avg: 0/0/0 buffer size: 0 vbv_delay: N/A
  Stream #0:1(eng): Audio: aac (LC) (mp4a / 0x6134706D), 48000 Hz, stereo, fltp, 192 kb/s (default)
    Metadata:
      encoder         : Lavc62.28.101 aac
      handler_name    : SoundHandler
frame=  314 fps=0.0 q=22.0 size=    2816KiB time=00:00:05.23 bitrate=4403.7kbits/s speed=9.98x elapsed=0:00:00.52    frame=  568 fps=546 q=27.0 size=    6912KiB time=00:00:09.47 bitrate=5975.4kbits/s speed= 9.1x elapsed=0:00:01.04    frame=  663 fps=428 q=25.0 size=    8448KiB time=00:00:11.06 bitrate=6256.8kbits/s speed=7.14x elapsed=0:00:01.54    frame=  909 fps=440 q=25.0 size=   13056KiB time=00:00:15.16 bitrate=7052.7kbits/s speed=7.34x elapsed=0:00:02.06    frame= 1202 fps=465 q=27.0 size=   17152KiB time=00:00:20.05 bitrate=7006.8kbits/s speed=7.75x elapsed=0:00:02.58    frame= 1522 fps=490 q=27.0 size=   20736KiB time=00:00:25.39 bitrate=6689.9kbits/s speed=8.18x elapsed=0:00:03.10    frame= 1812 fps=502 q=28.0 size=   25088KiB time=00:00:30.23 bitrate=6798.5kbits/s speed=8.37x elapsed=0:00:03.61    frame= 2132 fps=515 q=26.0 size=   29696KiB time=00:00:36.13 bitrate=6731.6kbits/s speed=8.73x elapsed=0:00:04.13    frame= 2442 fps=526 q=29.0 size=   35072KiB time=00:00:41.30 bitrate=6956.4kbits/s speed= 8.9x elapsed=0:00:04.63    [mp4 @ 00000297f55e3cc0] Starting second pass: moving the moov atom to the beginning of the file
[out#0/mp4 @ 00000297f76dd280] video:39053KiB audio:1104KiB subtitle:0KiB other streams:0KiB global headers:0KiB muxing overhead: 0.175735%
frame= 2749 fps=538 q=-1.0 Lsize=   40227KiB time=00:00:45.86 bitrate=7185.4kbits/s speed=8.98x elapsed=0:00:05.10    
[libx264 @ 00000297f7a3d740] frame I:21    Avg QP:17.08  size: 57550
[libx264 @ 00000297f7a3d740] frame P:1066  Avg QP:19.22  size: 24452
[libx264 @ 00000297f7a3d740] frame B:1662  Avg QP:20.72  size:  7651
[libx264 @ 00000297f7a3d740] consecutive B-frames: 12.1% 19.2%  8.2% 60.5%
[libx264 @ 00000297f7a3d740] mb I  I16..4: 25.2% 55.1% 19.8%
[libx264 @ 00000297f7a3d740] mb P  I16..4: 17.7% 33.3%  2.7%  P16..4: 22.4%  0.0%  0.0%  0.0%  0.0%    skip:23.8%
[libx264 @ 00000297f7a3d740] mb B  I16..4:  3.5%  5.4%  0.2%  B16..8: 19.5%  0.0%  0.0%  direct: 4.8%  skip:66.6%  L0:43.2% L1:50.0% BI: 6.8%
[libx264 @ 00000297f7a3d740] 8x8 transform intra:61.2% inter:54.0%
[libx264 @ 00000297f7a3d740] coded y,uvDC,uvAC intra: 28.5% 26.4% 6.2% inter: 3.2% 9.0% 0.1%
[libx264 @ 00000297f7a3d740] i16 v,h,dc,p: 51% 30%  7% 12%
[libx264 @ 00000297f7a3d740] i8 v,h,dc,ddl,ddr,vr,hd,vl,hu: 16% 26% 17%  6%  6%  6%  9%  4%  9%
[libx264 @ 00000297f7a3d740] i4 v,h,dc,ddl,ddr,vr,hd,vl,hu: 22% 32% 12%  7%  5%  5%  7%  4%  7%
[libx264 @ 00000297f7a3d740] i8c dc,h,v,p: 59% 20% 14%  7%
[libx264 @ 00000297f7a3d740] Weighted P-Frames: Y:13.8% UV:6.0%
[libx264 @ 00000297f7a3d740] kb/s:6975.58
[aac @ 00000297f79b3400] Qavg: 859.910
W0000 00:00:1778433214.069720   34256 inference_feedback_manager.cc:121] Feedback manager requires a model with a single signature inference. Disabling support for feedback tensors.
ffmpeg version 8.1.1-full_build-www.gyan.dev Copyright (c) 2000-2026 the FFmpeg developers
  built with gcc 15.2.0 (Rev13, Built by MSYS2 project)
  configuration: --enable-gpl --enable-version3 --enable-static --disable-w32threads --disable-autodetect --enable-cairo --enable-fontconfig --enable-iconv --enable-gnutls --enable-lcms2 --enable-libxml2 --enable-gmp --enable-bzlib --enable-lzma --enable-libsnappy --enable-zlib --enable-librist --enable-libsrt --enable-libssh --enable-libzmq --enable-avisynth --enable-libbluray --enable-libcaca --enable-libdvdnav --enable-libdvdread --enable-sdl2 --enable-libaribb24 --enable-libaribcaption --enable-libdav1d --enable-libdavs2 --enable-libopenjpeg --enable-libquirc --enable-libuavs3d --enable-libxevd --enable-libzvbi --enable-liboapv --enable-libqrencode --enable-librav1e --enable-libsvtav1 --enable-libvvenc --enable-libwebp --enable-libx264 --enable-libx265 --enable-libxavs2 --enable-libxeve --enable-libxvid --enable-libaom --enable-libjxl --enable-libsvtjpegxs --enable-libvpx --enable-mediafoundation --enable-libass --enable-frei0r --enable-libfreetype --enable-libfribidi --enable-libharfbuzz --enable-liblensfun --enable-libvidstab --enable-libvmaf --enable-libzimg --enable-amf --enable-cuda-llvm --enable-cuvid --enable-dxva2 --enable-d3d11va --enable-d3d12va --enable-ffnvcodec --enable-libvpl --enable-nvdec --enable-nvenc --enable-vaapi --enable-libshaderc --enable-vulkan --enable-libplacebo --enable-opencl --enable-libcdio --enable-openal --enable-libgme --enable-libmodplug --enable-libopenmpt --enable-libopencore-amrwb --enable-libmp3lame --enable-libshine --enable-libtheora --enable-libtwolame --enable-libvo-amrwbenc --enable-libcodec2 --enable-libilbc --enable-libgsm --enable-liblc3 --enable-libopencore-amrnb --enable-libopus --enable-libspeex --enable-libvorbis --enable-ladspa --enable-libbs2b --enable-libflite --enable-libmysofa --enable-librubberband --enable-libsoxr --enable-chromaprint --enable-whisper
  libavutil      60. 26.101 / 60. 26.101
  libavcodec     62. 28.101 / 62. 28.101
  libavformat    62. 12.101 / 62. 12.101
  libavdevice    62.  3.101 / 62.  3.101
  libavfilter    11. 14.101 / 11. 14.101
  libswscale      9.  5.101 /  9.  5.101
  libswresample   6.  3.101 /  6.  3.101
Input #0, avi, from 'C:\Users\Macie\AppData\Local\Temp\face_track_34wjw_uv\segment_5_00-06_56_00-40_74_silent.avi':
  Metadata:
    software        : Lavf62.12.101
  Duration: 00:00:34.18, start: 0.000000, bitrate: 10361 kb/s
  Stream #0:0: Video: h264 (High) (H264 / 0x34363248), yuvj420p(pc, bt470bg/unknown/unknown, progressive), 1080x1920 [SAR 1:1 DAR 9:16], 10353 kb/s, 59.94 fps, 59.94 tbr, 59.94 tbn
Input #1, mov,mp4,m4a,3gp,3g2,mj2, from 'C:\Users\Macie\AppData\Local\Temp\face_track_34wjw_uv\segment_5_00-06_56_00-40_74_audio.m4a':
  Metadata:
    major_brand     : M4A 
    minor_version   : 512
    compatible_brands: M4A isomiso2
    encoder         : Lavf62.12.101
  Duration: 00:00:34.18, start: 0.000000, bitrate: 196 kb/s
  Stream #1:0[0x1](eng): Audio: aac (LC) (mp4a / 0x6134706D), 48000 Hz, stereo, fltp, 194 kb/s (default)
    Metadata:
      handler_name    : SoundHandler
Stream mapping:
  Stream #0:0 -> #0:0 (h264 (native) -> h264 (libx264))
  Stream #1:0 -> #0:1 (aac (native) -> aac (native))
Press [q] to stop, [?] for help
[swscaler @ 000001f21f51c140] deprecated pixel format used, make sure you did set range correctly
[libx264 @ 000001f21dab0480] using SAR=1/1
[libx264 @ 000001f21dab0480] using cpu capabilities: MMX2 SSE2Fast SSSE3 SSE4.2 AVX FMA3 BMI2 AVX2 AVX512
[libx264 @ 000001f21dab0480] profile High, level 4.2, 4:2:0, 8-bit
[libx264 @ 000001f21dab0480] 264 - core 165 r3223 0480cb0 - H.264/MPEG-4 AVC codec - Copyleft 2003-2025 - http://www.videolan.org/x264.html - options: cabac=1 ref=1 deblock=1:0:0 analyse=0x3:0x3 me=dia subme=1 psy=1 psy_rd=1.00:0.00 mixed_ref=0 me_range=16 chroma_me=1 trellis=0 8x8dct=1 cqm=0 deadzone=21,11 fast_pskip=1 chroma_qp_offset=0 threads=24 lookahead_threads=4 sliced_threads=0 nr=0 decimate=1 interlaced=0 bluray_compat=0 constrained_intra=0 bframes=3 b_pyramid=2 b_adapt=1 b_bias=0 direct=1 weightb=1 open_gop=0 weightp=1 keyint=250 keyint_min=25 scenecut=40 intra_refresh=0 rc=crf mbtree=0 crf=23.0 qcomp=0.60 qpmin=0 qpmax=69 qpstep=4 ip_ratio=1.40 pb_ratio=1.30 aq=1:1.00
Output #0, mp4, to 'D:\PythonProjects\viral-cutter-ai\benchmarks\runs\20260510_164907\emeritos_gameplay\compare_generic\cuts_raw\segment_5_00-06_56_00-40_74.mp4':
  Metadata:
    software        : Lavf62.12.101
    encoder         : Lavf62.12.101
  Stream #0:0: Video: h264 (avc1 / 0x31637661), yuv420p(pc, bt470bg/unknown/unknown, progressive), 1080x1920 [SAR 1:1 DAR 9:16], q=2-31, 59.94 fps, 60k tbn
    Metadata:
      encoder         : Lavc62.28.101 libx264
    Side data:
      CPB properties: bitrate max/min/avg: 0/0/0 buffer size: 0 vbv_delay: N/A
  Stream #0:1(eng): Audio: aac (LC) (mp4a / 0x6134706D), 48000 Hz, stereo, fltp, 192 kb/s (default)
    Metadata:
      encoder         : Lavc62.28.101 aac
      handler_name    : SoundHandler
frame=  258 fps=0.0 q=22.0 size=    2048KiB time=00:00:04.28 bitrate=3913.0kbits/s speed=8.55x elapsed=0:00:00.50    frame=  556 fps=546 q=27.0 size=    5376KiB time=00:00:09.27 bitrate=4747.8kbits/s speed=9.12x elapsed=0:00:01.01    frame=  666 fps=433 q=23.0 size=    6656KiB time=00:00:11.11 bitrate=4907.4kbits/s speed=7.23x elapsed=0:00:01.53    frame=  973 fps=475 q=25.0 size=   10752KiB time=00:00:16.23 bitrate=5426.1kbits/s speed=7.92x elapsed=0:00:02.04    frame= 1293 fps=504 q=26.0 size=   14336KiB time=00:00:21.57 bitrate=5444.2kbits/s speed=8.41x elapsed=0:00:02.56    frame= 1651 fps=536 q=25.0 size=   18688KiB time=00:00:28.11 bitrate=5444.8kbits/s speed=9.13x elapsed=0:00:03.08    [mp4 @ 000001f21b71edc0] Starting second pass: moving the moov atom to the beginning of the file
[out#0/mp4 @ 000001f21d874000] video:22290KiB audio:821KiB subtitle:0KiB other streams:0KiB global headers:0KiB muxing overhead: 0.232265%
frame= 2047 fps=573 q=-1.0 Lsize=   23165KiB time=00:00:34.15 bitrate=5556.7kbits/s speed=9.56x elapsed=0:00:03.57    
[libx264 @ 000001f21dab0480] frame I:15    Avg QP:16.51  size: 67565
[libx264 @ 000001f21dab0480] frame P:695   Avg QP:19.18  size: 19973
[libx264 @ 000001f21dab0480] frame B:1337  Avg QP:20.90  size:  5931
[libx264 @ 000001f21dab0480] consecutive B-frames:  7.3% 15.2%  5.0% 72.5%
[libx264 @ 000001f21dab0480] mb I  I16..4: 27.2% 49.8% 23.0%
[libx264 @ 000001f21dab0480] mb P  I16..4:  8.3% 17.2%  2.1%  P16..4: 30.0%  0.0%  0.0%  0.0%  0.0%    skip:42.3%
[libx264 @ 000001f21dab0480] mb B  I16..4:  1.3%  1.9%  0.1%  B16..8: 17.4%  0.0%  0.0%  direct: 7.3%  skip:72.0%  L0:42.2% L1:49.7% BI: 8.0%
[libx264 @ 000001f21dab0480] 8x8 transform intra:60.6% inter:51.3%
[libx264 @ 000001f21dab0480] coded y,uvDC,uvAC intra: 35.0% 48.6% 15.1% inter: 2.6% 12.9% 0.1%
[libx264 @ 000001f21dab0480] i16 v,h,dc,p: 51% 28%  8% 14%
[libx264 @ 000001f21dab0480] i8 v,h,dc,ddl,ddr,vr,hd,vl,hu: 19% 24% 17%  6%  7%  7%  8%  5%  7%
[libx264 @ 000001f21dab0480] i4 v,h,dc,ddl,ddr,vr,hd,vl,hu: 27% 25% 10%  7%  6%  7%  6%  6%  6%
[libx264 @ 000001f21dab0480] i8c dc,h,v,p: 42% 24% 19% 15%
[libx264 @ 000001f21dab0480] Weighted P-Frames: Y:2.2% UV:0.3%
[libx264 @ 000001f21dab0480] kb/s:5346.79
[aac @ 000001f21db01880] Qavg: 958.312
Cutting segment 1: 1067.41s - 1115.79s -> D:\PythonProjects\viral-cutter-ai\benchmarks\runs\20260510_164907\emeritos_gameplay\compare_generic\cuts_raw\segment_1_17-47_41_18-35_79.mp4
Cutting segment 2: 998.20s - 1039.73s -> D:\PythonProjects\viral-cutter-ai\benchmarks\runs\20260510_164907\emeritos_gameplay\compare_generic\cuts_raw\segment_2_16-38_20_17-19_73.mp4
Cutting segment 3: 337.91s - 374.94s -> D:\PythonProjects\viral-cutter-ai\benchmarks\runs\20260510_164907\emeritos_gameplay\compare_generic\cuts_raw\segment_3_05-37_91_06-14_94.mp4
Cutting segment 4: 254.05s - 299.95s -> D:\PythonProjects\viral-cutter-ai\benchmarks\runs\20260510_164907\emeritos_gameplay\compare_generic\cuts_raw\segment_4_04-14_05_04-59_95.mp4
Cutting segment 5: 6.56s - 40.74s -> D:\PythonProjects\viral-cutter-ai\benchmarks\runs\20260510_164907\emeritos_gameplay\compare_generic\cuts_raw\segment_5_00-06_56_00-40_74.mp4
Done. Files saved in D:\PythonProjects\viral-cutter-ai\benchmarks\runs\20260510_164907\emeritos_gameplay\compare_generic\cuts_raw
$ D:\PythonProjects\viral-cutter-ai\.venv\Scripts\python.exe D:\PythonProjects\viral-cutter-ai\cutter.py --video "D:\PythonProjects\viral-cutter-ai\input\EMERITOS BANDITOS BEZ MVP MAJORA W ESEA INTERMEDIATE!.mp4" --windows D:\PythonProjects\viral-cutter-ai\benchmarks\runs\20260510_164907\emeritos_gameplay\compare_generic\top_windows.json --transcript D:\PythonProjects\viral-cutter-ai\benchmarks\runs\20260510_164907\emeritos_gameplay\shared\transcript.json --output-dir D:\PythonProjects\viral-cutter-ai\benchmarks\runs\20260510_164907\emeritos_gameplay\compare_generic\cuts_raw --cutting-log D:\PythonProjects\viral-cutter-ai\benchmarks\runs\20260510_164907\emeritos_gameplay\compare_generic\cutting_logic.json

